PathFileType	4	(X/Y/Z)	C:\Users\Owen\Repositories\CapacitiveSensingKinematics\CSOptimalControl\OutputData\FilteredIMUAccels.trc
DataRate	CameraRate	NumFrames	NumMarkers	Units	OrigDataRate	OrigDataStartFrame	OrigNumFrames
100	100	8	8	m	100	1764	7057
Frame#	Time	/bodyset/torso/torso_imu_offset			/bodyset/pelvis/pelvis_imu_offset			/bodyset/tibia_r/tibia_r_imu_offset			/bodyset/femur_r/femur_r_imu_offset			/bodyset/tibia_l/tibia_l_imu_offset			/bodyset/femur_l/femur_l_imu_offset			/bodyset/toes_r/toes_r_imu_offset			/bodyset/toes_l/toes_l_imu_offset			
		X1	Y1	Z1	X2	Y2	Z2	X3	Y3	Z3	X4	Y4	Z4	X5	Y5	Z5	X6	Y6	Z6	X7	Y7	Z7	X8	Y8	Z8	

1765	17.64	10.22945353827562	-0.3089055337026773	7.741500122348858	11.32676210461189	-0.5435806694109893	3.161678399199587	11.07674493267097	2.715841505373666	1.973815154034803	10.50430244281215	-1.445327197831333	-0.6072576387397258	12.99876701800144	5.411806330797557	1.87136737481084	13.31739254155915	2.1399811639743	0.5622101352997612	4.730078275993788	0.2089927083333047	9.7212700755043	3.761215556847064	-2.547084321760289	15.90281004886122	
1766	17.65	10.85645576750406	-0.1842136321008959	7.980744861752644	11.93487474412137	-1.126953289890065	3.593508388027245	11.43773298889949	2.708487470301614	2.305399572003377	10.718327093894	-1.442752348256573	-0.5483272776547212	14.34071288748532	7.50731847044634	4.05952744366423	14.76368350178723	1.54265382681787	0.6381330066563122	4.678416166528969	0.1632672354096101	9.851339225362334	7.14290779068659	-0.956940256493255	16.935354294946	
1767	17.66	11.42844188916544	-0.02265161928043403	8.264491039162994	12.44687671532427	-1.676971339568558	3.944756101471802	11.78110485006693	2.630843567706597	2.618435704697831	10.89599971583083	-1.462502331209079	-0.5148509515834818	15.11829280253516	8.465469754324817	5.638153041994821	15.59547408855379	1.353213720571854	0.549220889327142	4.622365315395451	0.1053819095510464	9.957520293730731	9.933788545002427	0.6644155460607835	17.36081076038823	
1768	17.67	11.86122218777065	0.1585606055791762	8.567410484349837	12.72760203763696	-2.040231101668721	4.158337270596975	12.11344045477442	2.490104884367077	2.851233451439914	11.06754503873971	-1.419303901880209	-0.4796085786056295	15.14600766824488	8.102801757155795	6.168435054404983	15.4554031372788	1.478731991678156	0.265310496302132	4.567643247160355	-0.01822699480885503	10.02283345302846	11.38308638654207	1.499877413068241	17.10465260242575	
1769	17.68	12.04660940102357	0.3461443823180483	8.851486992814989	12.66933721838259	-2.04909725972256	4.211171145222234	12.40941823404268	2.28480369004413	2.956488323593866	11.24038398973775	-1.242290895507178	-0.4013217934328001	14.41527088621165	6.623979163851792	5.592794146080197	14.29809930031033	1.642210197225083	-0.2088791385285578	4.522081977525381	-0.2398157538687138	10.0214313649679	11.355014394178	1.317367904635	16.24425734777875	
1770	17.69	11.87856395234897	0.5250436424007959	9.061994488059419	12.25381078163312	-1.601947846107133	4.137950148127049	12.59485828878289	2.0229399357842	2.910218247930418	11.38382624582741	-0.8994210047268351	-0.2477772750390727	12.99139589969074	4.280845541738659	4.077344961617882	12.44386348902828	1.491883140848158	-0.8162863388456232	4.50976440482832	-0.532942245005132	9.9191124096088	10.12907655130002	0.6686975308181584	15.01959496245439	
1771	17.7	11.32311278248879	0.6794067102354608	9.142218912692179	11.56758854956775	-0.7325829036139528	4.02364987600754	12.58018695557793	1.742800609472891	2.716993713901083	11.44119931599439	-0.3993210573768776	-0.01494099439242018	11.12269272307422	1.302510618598991	1.890376057005185	10.40708438859465	0.8044970629340774	-1.45106181566277	4.575927347537899	-0.8157514946029725	9.691527940812646	8.267680023796178	0.3186349376059892	13.77381880959358	
1772	17.71	10.46100337719798	0.8013330153849232	9.057081719478683	10.74914462891697	0.3858270100610913	3.961550816093866	12.32204097629812	1.527910224361621	2.410193837316201	11.35623584572507	0.2179550179530907	0.27161454109924	9.263759877987084	-1.965751874040975	-0.5989657515914064	8.65819661105108	-0.3725232038944873	-1.990167141721682	4.792756282979155	-0.9868539089029102	9.348087613120564	6.386927415545865	0.5431456831815185	12.78213890901041	
